<svg width="396" height="394" viewBox="0 0 396 394" fill="none" xmlns="http://www.w3.org/2000/svg">
<path fill-rule="evenodd" clip-rule="evenodd" d="M378.045 18.2798C338.163 61.6611 289.806 117.817 239.77 178.859C231.471 188.983 224.805 197.663 224.956 198.145C225.337 199.366 245.762 234.937 261.739 262.214C269.036 274.67 274.733 285.123 274.405 285.441C274.076 285.758 261.757 286.283 247.03 286.594C227.174 287.015 219.994 286.902 219.248 286.163C218.697 285.613 212.343 275.875 205.125 264.52C197.91 253.164 191.528 243.186 190.933 242.335C189.974 240.958 188.049 242.671 173.02 258.249C163.763 267.849 149.872 282.472 142.157 290.756C134.444 299.032 126.89 307.136 125.374 308.752L122.613 311.694L125.276 309.923C128.506 307.771 162.023 280.193 176.678 267.626C185.031 260.468 187.417 258.825 188.04 259.822C188.474 260.519 193.595 269.966 199.428 280.821C205.259 291.677 210.327 300.83 210.701 301.165C211.339 301.75 305.871 303.979 306.449 303.428C306.768 303.118 279.286 254.308 260.417 221.663L247.572 199.443L278.293 159.727C321.556 103.786 352.4 62.1772 380.246 22.1595C388.714 9.97003 395.468 0 395.255 0C395.032 0 387.294 8.22377 378.045 18.2798Z" fill="#EB2027"/>
<path fill-rule="evenodd" clip-rule="evenodd" d="M256.315 96.3251C248.942 102.373 234.841 114.097 224.982 122.384C215.124 130.671 206.73 137.555 206.339 137.692C205.949 137.83 200.881 129.018 195.078 118.12C189.276 107.214 183.933 97.5485 183.197 96.6267C181.928 95.0416 179.656 94.921 134.41 94.0768C108.313 93.5856 86.8748 93.2669 86.7667 93.3703C86.4922 93.6373 117.319 148.314 132.591 174.658L145.856 197.546L118.117 233.401C73.936 290.516 38.7701 338.068 10.7033 378.66C-4.3285 400.403 -4.5155 400.55 27.7853 364.876C64.8674 323.923 97.3707 286.088 141.403 232.643C155.263 215.827 167.109 201.476 167.738 200.752C168.963 199.356 163.587 189.518 131.996 135.444C124.436 122.496 118.483 111.676 118.766 111.401C119.493 110.694 173.817 109.488 174.101 110.177C174.235 110.488 180.862 120.92 188.84 133.368L203.34 155.998L220.545 138.106C244.495 113.236 270.656 85.3242 270.043 85.3242C269.865 85.3242 263.689 90.2777 256.315 96.3251Z" fill="#1B3F73"/>
</svg>
